<svg width="54" height="51" viewBox="0 0 54 51" fill="none" xmlns="http://www.w3.org/2000/svg">
<path d="M35.1414 10.3316C32.0929 4.11201 25.7159 0 18.5629 0C8.32769 0 0.000812769 8.27282 0.000812769 18.4414C0.000812769 21.2049 0.594588 23.8536 1.76653 26.3232L0.0315034 34.9922C-0.189343 36.0957 0.784954 37.0711 1.88961 36.8528L10.6727 35.1177C11.8553 35.6782 13.0787 36.1045 14.3358 36.3982C11.518 23.0634 21.6339 10.5464 35.1414 10.3316Z" fill="#ACA1A1"/>
<path d="M52.2338 39.8117C52.5369 39.173 52.8005 38.5222 53.026 37.8607H52.9681C56.9176 26.2777 48.6118 14.1039 36.3501 13.5111C36.3499 13.5105 36.3498 13.5099 36.3496 13.5092C25.7991 13.0234 17.0336 21.4639 17.0336 31.93C17.0336 42.09 25.2981 50.3563 35.4631 50.3711C38.2203 50.3674 40.8631 49.7743 43.3275 48.6063C52.9468 50.5065 52.1966 50.3714 52.4175 50.3714C53.4173 50.3714 54.1641 49.4561 53.9688 48.4808L52.2338 39.8117Z" fill="#ACA1A1"/>
</svg>
